<?xml version="1.0" encoding="UTF-8"?>
<svg id="Layer_2" xmlns="http://www.w3.org/2000/svg" viewBox="0 0 805.37 244.78">
  <g id="Layer_1-2" data-name="Layer_1">
    <g>
      <path d="M186.76,56.29L99.06,3.55c-7.67-4.61-16.9-4.74-24.69-.33-7.79,4.41-12.44,12.38-12.44,21.33v32.27l-24.84-14.95c-7.66-4.61-16.88-4.73-24.65-.33C4.64,45.94,0,53.9,0,62.84v102.59c0,8.53,4.54,16.57,11.86,20.97l84.92,51.07c3.93,2.36,8.26,3.54,12.6,3.54s8.26-1.07,12.05-3.21c7.78-4.4,12.42-12.36,12.42-21.3v-32.43l33.7,20.33c2.99,1.81,6.3,2.71,9.61,2.71,3.13,0,6.27-.81,9.16-2.44,5.92-3.34,9.46-9.4,9.46-16.21v-116.22c0-6.49-3.46-12.6-9.02-15.95ZM75.16,24.55c0-4.11,2.14-7.78,5.72-9.8,3.58-2.03,7.82-1.97,11.35.15l84.95,51.08c-6.16,3.05-15.42,7.23-25.95,10.62-16.71,5.39-39.99,9.81-55.94.3l-20.13-12.11V24.55ZM120.61,160.61l-13.6-8.21-.03-.02c-8.91-5.31-19.2-7.36-29.76-7.36-9.8,0-19.84,1.76-29.24,4.31,14.31-14.71,27.18-33.66,27.18-54.25v-14.84l13.33,8.02c17.32,10.33,39.78,8.43,59.33,3.17-14.28,14.69-27.21,33.71-27.21,54.45v14.72ZM18.94,53.07c1.74-.98,3.64-1.47,5.53-1.47,1.99,0,3.98.54,5.78,1.63l31.67,19.06v22.81c0,10.65-4.97,27.98-28.64,50.09-7.2,6.73-14.47,12.3-20.04,16.26V62.84c0-4.1,2.13-7.75,5.7-9.77ZM120.61,216.49c0,4.1-2.13,7.75-5.7,9.77-3.57,2.02-7.8,1.96-11.31-.15l-84.92-51.07c-.06-.04-.12-.08-.18-.12,6.19-3.08,15.28-7.2,25.57-10.58,16.79-5.52,40.16-10.1,56.12-.6l20.43,12.33v40.42ZM179.8,193.14c-.82.46-2.99,1.38-5.42-.08l-40.54-24.46v-22.71c0-10.65,4.91-27.97,28.3-49.95,7.37-6.93,14.81-12.62,20.39-16.57v109.09c0,2.83-1.91,4.21-2.73,4.68Z"/>
      <g>
        <path d="M297.97,39.96h30.1l62.24,161.59h-30.33l-15.16-42.77h-64.5l-15.16,42.77h-29.2l62.01-161.59ZM288.01,137.28h49.34l-24.22-69.48h-.68l-24.44,69.48Z"/>
        <path d="M398.23,39.96h25.8v161.59h-25.8V39.96Z"/>
        <path d="M467.71,149.73c0,4.53.64,8.9,1.92,13.13,1.28,4.23,3.2,7.92,5.77,11.09,2.56,3.17,5.81,5.7,9.73,7.58,3.92,1.89,8.6,2.83,14.03,2.83,7.54,0,13.61-1.62,18.22-4.87,4.6-3.24,8.03-8.11,10.3-14.6h24.44c-1.36,6.34-3.7,12-7.02,16.97-3.32,4.98-7.32,9.17-12,12.56-4.68,3.39-9.92,5.96-15.73,7.69-5.81,1.73-11.88,2.6-18.22,2.6-9.21,0-17.35-1.51-24.44-4.53-7.09-3.02-13.09-7.24-17.99-12.67-4.91-5.43-8.6-11.92-11.09-19.46-2.49-7.54-3.73-15.84-3.73-24.9,0-8.3,1.32-16.18,3.96-23.65,2.64-7.47,6.41-14.03,11.32-19.69,4.9-5.66,10.83-10.15,17.77-13.47,6.94-3.32,14.79-4.98,23.54-4.98,9.2,0,17.46,1.92,24.78,5.77,7.32,3.85,13.39,8.94,18.22,15.28,4.83,6.34,8.33,13.62,10.52,21.84,2.18,8.23,2.75,16.71,1.7,25.46h-86ZM527.91,132.75c-.3-4.07-1.17-8-2.6-11.77-1.44-3.77-3.39-7.05-5.88-9.84-2.49-2.79-5.51-5.05-9.05-6.79-3.55-1.73-7.51-2.6-11.88-2.6s-8.64.79-12.33,2.38c-3.7,1.58-6.87,3.77-9.5,6.56-2.64,2.79-4.75,6.08-6.34,9.84-1.58,3.77-2.45,7.85-2.6,12.22h60.2Z"/>
        <path d="M569.55,84.55h24.44v15.84h.45c3.62-6.79,8.67-11.66,15.16-14.6,6.49-2.94,13.5-4.41,21.05-4.41,9.2,0,17.24,1.62,24.1,4.87,6.86,3.25,12.56,7.69,17.09,13.35,4.53,5.66,7.92,12.26,10.18,19.8,2.26,7.55,3.39,15.62,3.39,24.22,0,7.85-1.02,15.47-3.05,22.86-2.04,7.39-5.13,13.92-9.28,19.58-4.15,5.66-9.39,10.18-15.73,13.58s-13.81,5.09-22.41,5.09c-3.77,0-7.55-.34-11.32-1.02-3.77-.68-7.39-1.78-10.86-3.28-3.47-1.51-6.68-3.43-9.62-5.77-2.94-2.34-5.4-5.09-7.36-8.26h-.45v58.39h-25.8V84.55ZM659.63,143.16c0-5.28-.68-10.41-2.04-15.39s-3.39-9.39-6.11-13.24c-2.72-3.85-6.11-6.94-10.18-9.28-4.07-2.34-8.75-3.51-14.03-3.51-10.86,0-19.05,3.77-24.55,11.32-5.51,7.55-8.26,17.58-8.26,30.1,0,5.88.71,11.36,2.15,16.41,1.43,5.06,3.58,9.39,6.45,13.01,2.86,3.62,6.3,6.49,10.3,8.6,4,2.12,8.64,3.17,13.92,3.17,5.88,0,10.86-1.21,14.94-3.62,4.07-2.41,7.43-5.54,10.07-9.39,2.64-3.85,4.53-8.22,5.66-13.13,1.13-4.9,1.7-9.92,1.7-15.05Z"/>
        <path d="M702.62,39.96h25.8v59.97h.45c3.17-5.28,7.88-9.69,14.14-13.24,6.26-3.54,13.24-5.32,20.93-5.32,12.82,0,22.93,3.32,30.33,9.96,7.39,6.64,11.09,16.6,11.09,29.87v80.34h-25.8v-73.55c-.3-9.2-2.26-15.88-5.88-20.03-3.62-4.15-9.28-6.22-16.97-6.22-4.38,0-8.3.79-11.77,2.38-3.47,1.58-6.41,3.77-8.83,6.56-2.42,2.79-4.3,6.08-5.66,9.84-1.36,3.77-2.04,7.77-2.04,11.99v69.03h-25.8V39.96Z"/>
      </g>
    </g>
  </g>
</svg>