<?xml version="1.0" encoding="UTF-8"?>
<svg id="Layer_2" xmlns="http://www.w3.org/2000/svg" viewBox="0 0 883.19 314.41">
  <defs>
    <style>
      .cls-1 {
        fill: #fff;
      }
    </style>
  </defs>
  <g id="Layer_1-2" data-name="Layer_1">
    <g>
      <path class="cls-1" d="M243.64,73.43L129.23,4.63c-10.01-6.02-22.05-6.18-32.21-.43-10.16,5.75-16.23,16.15-16.23,27.83v42.11l-32.41-19.5c-9.99-6.01-22.02-6.17-32.16-.44C6.06,59.93,0,70.32,0,81.98v133.83c0,11.13,5.93,21.62,15.47,27.35l110.78,66.62c5.12,3.08,10.78,4.62,16.44,4.62s10.78-1.4,15.72-4.19c10.15-5.74,16.21-16.13,16.21-27.78v-42.31l43.96,26.53c3.9,2.36,8.22,3.54,12.54,3.54,4.09,0,8.19-1.06,11.95-3.18,7.73-4.36,12.34-12.27,12.34-21.14V94.24c0-8.47-4.51-16.44-11.77-20.81ZM98.06,32.03c0-5.37,2.79-10.15,7.46-12.79,4.67-2.64,10.21-2.57,14.81.2l110.83,66.65c-8.03,3.97-20.12,9.43-33.85,13.86-21.8,7.03-52.17,12.8-72.98.39l-26.26-15.8v-52.5ZM157.35,209.53l-17.75-10.71-.04-.02c-11.63-6.93-25.05-9.6-38.83-9.6-12.79,0-25.88,2.3-38.14,5.63,18.67-19.19,35.46-43.91,35.46-70.77v-19.36l17.38,10.46c22.6,13.48,51.9,11,77.4,4.14-18.63,19.16-35.49,43.98-35.49,71.04v19.21ZM24.71,69.23c2.27-1.28,4.74-1.92,7.21-1.92,2.6,0,5.2.71,7.55,2.12l41.32,24.86v29.76c0,13.89-6.48,36.51-37.37,65.34-9.4,8.77-18.87,16.04-26.15,21.21V81.98c0-5.35,2.78-10.12,7.44-12.75ZM157.35,282.43c0,5.35-2.78,10.12-7.44,12.75-4.66,2.63-10.17,2.56-14.76-.2L24.37,228.36c-.08-.05-.16-.1-.24-.16,8.08-4.02,19.94-9.4,33.36-13.81,21.91-7.2,52.39-13.18,73.21-.78l26.65,16.08v52.73ZM234.57,251.97c-1.07.6-3.9,1.8-7.07-.1l-52.89-31.91v-29.63c0-13.9,6.4-36.49,36.92-65.16,9.62-9.04,19.32-16.46,26.59-21.62v142.32c0,3.69-2.49,5.5-3.56,6.1Z"/>
      <g>
        <path class="cls-1" d="M375.79,63.17h30.1l62.24,161.59h-30.33l-15.16-42.77h-64.5l-15.16,42.77h-29.2l62.01-161.59ZM365.83,160.48h49.34l-24.22-69.48h-.68l-24.44,69.48Z"/>
        <path class="cls-1" d="M476.04,63.17h25.8v161.59h-25.8V63.17Z"/>
        <path class="cls-1" d="M545.53,172.93c0,4.53.64,8.9,1.92,13.13,1.28,4.23,3.2,7.92,5.77,11.09,2.56,3.17,5.81,5.7,9.73,7.58,3.92,1.89,8.6,2.83,14.03,2.83,7.54,0,13.61-1.62,18.22-4.87,4.6-3.24,8.03-8.11,10.3-14.6h24.44c-1.36,6.34-3.7,12-7.02,16.97-3.32,4.98-7.32,9.17-12,12.56-4.68,3.39-9.92,5.96-15.73,7.69-5.81,1.73-11.88,2.6-18.22,2.6-9.21,0-17.35-1.51-24.44-4.53-7.09-3.02-13.09-7.24-17.99-12.67-4.91-5.43-8.6-11.92-11.09-19.46-2.49-7.54-3.73-15.84-3.73-24.9,0-8.3,1.32-16.18,3.96-23.65,2.64-7.47,6.41-14.03,11.32-19.69,4.9-5.66,10.83-10.15,17.77-13.47,6.94-3.32,14.79-4.98,23.54-4.98,9.2,0,17.46,1.92,24.78,5.77,7.32,3.85,13.39,8.94,18.22,15.28,4.83,6.34,8.33,13.62,10.52,21.84,2.18,8.23,2.75,16.71,1.7,25.46h-86ZM605.73,155.96c-.3-4.07-1.17-8-2.6-11.77-1.44-3.77-3.39-7.05-5.88-9.84-2.49-2.79-5.51-5.05-9.05-6.79-3.55-1.73-7.51-2.6-11.88-2.6s-8.64.79-12.33,2.38c-3.7,1.58-6.87,3.77-9.5,6.56-2.64,2.79-4.75,6.08-6.34,9.84-1.58,3.77-2.45,7.85-2.6,12.22h60.2Z"/>
        <path class="cls-1" d="M647.37,107.75h24.44v15.84h.45c3.62-6.79,8.67-11.66,15.16-14.6,6.49-2.94,13.5-4.41,21.05-4.41,9.2,0,17.24,1.62,24.1,4.87,6.86,3.25,12.56,7.69,17.09,13.35,4.53,5.66,7.92,12.26,10.18,19.8,2.26,7.55,3.39,15.62,3.39,24.22,0,7.85-1.02,15.47-3.05,22.86-2.04,7.39-5.13,13.92-9.28,19.58-4.15,5.66-9.39,10.18-15.73,13.58s-13.81,5.09-22.41,5.09c-3.77,0-7.55-.34-11.32-1.02-3.77-.68-7.39-1.78-10.86-3.28-3.47-1.51-6.68-3.43-9.62-5.77-2.94-2.34-5.4-5.09-7.36-8.26h-.45v58.39h-25.8V107.75ZM737.44,166.37c0-5.28-.68-10.41-2.04-15.39s-3.39-9.39-6.11-13.24c-2.72-3.85-6.11-6.94-10.18-9.28-4.07-2.34-8.75-3.51-14.03-3.51-10.86,0-19.05,3.77-24.55,11.32-5.51,7.55-8.26,17.58-8.26,30.1,0,5.88.71,11.36,2.15,16.41,1.43,5.06,3.58,9.39,6.45,13.01,2.86,3.62,6.3,6.49,10.3,8.6,4,2.12,8.64,3.17,13.92,3.17,5.88,0,10.86-1.21,14.94-3.62,4.07-2.41,7.43-5.54,10.07-9.39,2.64-3.85,4.53-8.22,5.66-13.13,1.13-4.9,1.7-9.92,1.7-15.05Z"/>
        <path class="cls-1" d="M780.44,63.17h25.8v59.97h.45c3.17-5.28,7.88-9.69,14.14-13.24,6.26-3.54,13.24-5.32,20.93-5.32,12.82,0,22.93,3.32,30.33,9.96,7.39,6.64,11.09,16.6,11.09,29.87v80.34h-25.8v-73.55c-.3-9.2-2.26-15.88-5.88-20.03-3.62-4.15-9.28-6.22-16.97-6.22-4.38,0-8.3.79-11.77,2.38-3.47,1.58-6.41,3.77-8.83,6.56-2.42,2.79-4.3,6.08-5.66,9.84-1.36,3.77-2.04,7.77-2.04,11.99v69.03h-25.8V63.17Z"/>
      </g>
    </g>
  </g>
</svg>