<?xml version="1.0" encoding="UTF-8"?>
<svg id="Layer_2" xmlns="http://www.w3.org/2000/svg" viewBox="0 0 1024 1024">
  <defs>
    <style>
      .cls-1 {
        fill: #fff;
      }
    </style>
  </defs>
  <g id="Layer_1-2" data-name="Layer_1">
    <g>
      <rect width="1024" height="1024"/>
      <path class="cls-1" d="M749.94,340.58l-234.61-141.09c-20.52-12.34-45.21-12.67-66.05-.88-20.84,11.79-33.28,33.12-33.28,57.06v86.34l-66.46-39.99c-20.49-12.33-45.15-12.66-65.96-.9-20.81,11.77-33.24,33.07-33.24,56.98v274.44c0,22.83,12.15,44.33,31.72,56.09l227.18,136.61c10.5,6.32,22.1,9.48,33.71,9.48s22.1-2.86,32.24-8.6c20.81-11.77,33.23-33.07,33.23-56.97v-86.76l90.15,54.4c8.01,4.83,16.85,7.25,25.71,7.25,8.39,0,16.79-2.17,24.49-6.52,15.85-8.95,25.31-25.16,25.31-43.36v-310.92c0-17.37-9.25-33.72-24.13-42.67ZM451.41,255.67c0-11.01,5.72-20.81,15.3-26.23,9.58-5.42,20.93-5.27,30.36.41l227.26,136.66c-16.47,8.15-41.26,19.33-69.42,28.42-44.71,14.42-106.97,26.25-149.65.8l-53.85-32.4v-107.66ZM572.99,619.66l-36.4-21.96-.08-.05c-23.84-14.22-51.36-19.69-79.62-19.69-26.22,0-53.08,4.71-78.21,11.54,38.28-39.34,72.72-90.04,72.72-145.12v-39.71l35.65,21.45c46.34,27.63,106.42,22.56,158.71,8.49-38.2,39.29-72.78,90.18-72.78,145.68v39.38ZM301,331.96c4.65-2.63,9.72-3.94,14.79-3.94,5.33,0,10.66,1.45,15.48,4.35l84.73,50.98v61.02c0,28.49-13.29,74.86-76.63,133.99-19.27,17.99-38.7,32.9-53.62,43.5v-263.76c0-10.97,5.7-20.74,15.25-26.14ZM572.99,769.16c0,10.97-5.7,20.74-15.25,26.14-9.55,5.4-20.86,5.25-30.26-.4l-227.18-136.62c-.17-.1-.33-.21-.49-.32,16.56-8.24,40.89-19.27,68.4-28.32,44.92-14.77,107.43-27.03,150.13-1.59l54.65,32.98v108.13ZM731.35,706.68c-2.2,1.24-8,3.7-14.49-.21l-108.45-65.44v-60.76c0-28.5,13.13-74.82,75.71-133.63,19.72-18.53,39.62-33.76,54.54-44.33v291.85c0,7.57-5.11,11.27-7.31,12.51Z"/>
    </g>
  </g>
</svg>