<?xml version="1.0" encoding="UTF-8"?>
<svg id="Layer_2" xmlns="http://www.w3.org/2000/svg" viewBox="0 0 906.35 364.05">
  <g id="Layer_1-2" data-name="Layer_1">
    <g>
      <path d="M282.11,85.03L149.63,5.36c-11.59-6.97-25.53-7.15-37.3-.5-11.77,6.66-18.79,18.7-18.79,32.22v48.75l-37.53-22.58c-11.57-6.96-25.49-7.15-37.24-.51C7.02,69.39,0,81.42,0,94.92v154.96c0,12.89,6.86,25.03,17.91,31.67l128.28,77.14c5.93,3.57,12.48,5.35,19.03,5.35s12.48-1.62,18.21-4.85c11.75-6.65,18.77-18.67,18.77-32.17v-48.99l50.9,30.71c4.52,2.73,9.51,4.09,14.51,4.09,4.74,0,9.48-1.23,13.83-3.68,8.95-5.05,14.29-14.21,14.29-24.48V109.12c0-9.81-5.22-19.04-13.63-24.09ZM113.54,37.08c0-6.21,3.23-11.75,8.64-14.81,5.41-3.06,11.82-2.97,17.14.23l128.32,77.17c-9.3,4.6-23.3,10.92-39.2,16.05-25.24,8.14-60.4,14.82-84.5.45l-30.41-18.3v-60.79ZM182.19,242.61l-20.55-12.4-.04-.03c-13.46-8.03-29-11.12-44.96-11.12-14.81,0-29.97,2.66-44.16,6.51,21.61-22.21,41.06-50.84,41.06-81.95v-22.42l20.13,12.11c26.17,15.6,60.09,12.74,89.62,4.79-21.57,22.18-41.1,50.92-41.1,82.26v22.24ZM28.61,80.16c2.63-1.49,5.49-2.23,8.35-2.23,3.01,0,6.02.82,8.74,2.46l47.84,28.79v34.46c0,16.09-7.51,42.27-43.27,75.66-10.88,10.16-21.85,18.58-30.27,24.56V94.92c0-6.19,3.22-11.71,8.61-14.76ZM182.19,327.03c0,6.19-3.22,11.71-8.61,14.76-5.39,3.05-11.78,2.96-17.09-.23L28.22,264.42c-.09-.06-.18-.12-.28-.18,9.35-4.65,23.09-10.88,38.62-15.99,25.37-8.34,60.66-15.26,84.77-.9l30.86,18.62v61.06ZM271.61,291.75c-1.24.7-4.52,2.09-8.18-.12l-61.24-36.95v-34.31c0-16.09,7.42-42.25,42.75-75.45,11.13-10.46,22.37-19.06,30.79-25.03v164.8c0,4.28-2.88,6.37-4.12,7.07Z"/>
      <g>
        <path d="M398.95,87.99h30.1l62.24,161.59h-30.33l-15.16-42.77h-64.5l-15.16,42.77h-29.2l62.01-161.59ZM388.99,185.3h49.34l-24.22-69.48h-.68l-24.44,69.48Z"/>
        <path d="M499.21,87.99h25.8v161.59h-25.8V87.99Z"/>
        <path d="M568.69,197.75c0,4.53.64,8.9,1.92,13.13,1.28,4.23,3.2,7.92,5.77,11.09,2.56,3.17,5.81,5.7,9.73,7.58,3.92,1.89,8.6,2.83,14.03,2.83,7.54,0,13.61-1.62,18.22-4.87,4.6-3.24,8.03-8.11,10.3-14.6h24.44c-1.36,6.34-3.7,12-7.02,16.97-3.32,4.98-7.32,9.17-12,12.56-4.68,3.39-9.92,5.96-15.73,7.69-5.81,1.73-11.88,2.6-18.22,2.6-9.21,0-17.35-1.51-24.44-4.53-7.09-3.02-13.09-7.24-17.99-12.67-4.91-5.43-8.6-11.92-11.09-19.46-2.49-7.54-3.73-15.84-3.73-24.9,0-8.3,1.32-16.18,3.96-23.65,2.64-7.47,6.41-14.03,11.32-19.69,4.9-5.66,10.83-10.15,17.77-13.47,6.94-3.32,14.79-4.98,23.54-4.98,9.2,0,17.46,1.92,24.78,5.77,7.32,3.85,13.39,8.94,18.22,15.28,4.83,6.34,8.33,13.62,10.52,21.84,2.18,8.23,2.75,16.71,1.7,25.46h-86ZM628.89,180.78c-.3-4.07-1.17-8-2.6-11.77-1.44-3.77-3.39-7.05-5.88-9.84-2.49-2.79-5.51-5.05-9.05-6.79-3.55-1.73-7.51-2.6-11.88-2.6s-8.64.79-12.33,2.38c-3.7,1.58-6.87,3.77-9.5,6.56-2.64,2.79-4.75,6.08-6.34,9.84-1.58,3.77-2.45,7.85-2.6,12.22h60.2Z"/>
        <path d="M670.53,132.57h24.44v15.84h.45c3.62-6.79,8.67-11.66,15.16-14.6,6.49-2.94,13.5-4.41,21.05-4.41,9.2,0,17.24,1.62,24.1,4.87,6.86,3.25,12.56,7.69,17.09,13.35,4.53,5.66,7.92,12.26,10.18,19.8,2.26,7.55,3.39,15.62,3.39,24.22,0,7.85-1.02,15.47-3.05,22.86-2.04,7.39-5.13,13.92-9.28,19.58-4.15,5.66-9.39,10.18-15.73,13.58s-13.81,5.09-22.41,5.09c-3.77,0-7.55-.34-11.32-1.02-3.77-.68-7.39-1.78-10.86-3.28-3.47-1.51-6.68-3.43-9.62-5.77-2.94-2.34-5.4-5.09-7.36-8.26h-.45v58.39h-25.8v-160.23ZM760.61,191.19c0-5.28-.68-10.41-2.04-15.39s-3.39-9.39-6.11-13.24c-2.72-3.85-6.11-6.94-10.18-9.28-4.07-2.34-8.75-3.51-14.03-3.51-10.86,0-19.05,3.77-24.55,11.32-5.51,7.55-8.26,17.58-8.26,30.1,0,5.88.71,11.36,2.15,16.41,1.43,5.06,3.58,9.39,6.45,13.01,2.86,3.62,6.3,6.49,10.3,8.6,4,2.12,8.64,3.17,13.92,3.17,5.88,0,10.86-1.21,14.94-3.62,4.07-2.41,7.43-5.54,10.07-9.39,2.64-3.85,4.53-8.22,5.66-13.13,1.13-4.9,1.7-9.92,1.7-15.05Z"/>
        <path d="M803.6,87.99h25.8v59.97h.45c3.17-5.28,7.88-9.69,14.14-13.24,6.26-3.54,13.24-5.32,20.93-5.32,12.82,0,22.93,3.32,30.33,9.96,7.39,6.64,11.09,16.6,11.09,29.87v80.34h-25.8v-73.55c-.3-9.2-2.26-15.88-5.88-20.03-3.62-4.15-9.28-6.22-16.97-6.22-4.38,0-8.3.79-11.77,2.38-3.47,1.58-6.41,3.77-8.83,6.56-2.42,2.79-4.3,6.08-5.66,9.84-1.36,3.77-2.04,7.77-2.04,11.99v69.03h-25.8V87.99Z"/>
      </g>
    </g>
  </g>
</svg>